<svg xmlns="http://www.w3.org/2000/svg" width="20" height="19.999" viewBox="0 0 20 19.999">
  <path id="Path_8" data-name="Path 8" d="M61.262,34.964l-1.718-.61a8.1,8.1,0,0,0-.337-.817l.781-1.645a1,1,0,0,0-.116-1.044,10.064,10.064,0,0,0-1.719-1.72,1,1,0,0,0-1.045-.116l-1.646.781a7.987,7.987,0,0,0-.816-.336l-.611-1.718a1,1,0,0,0-.822-.658,9.215,9.215,0,0,0-2.427,0,1,1,0,0,0-.822.658l-.61,1.718a8.1,8.1,0,0,0-.817.337l-1.645-.781a1,1,0,0,0-1.044.116,10.064,10.064,0,0,0-1.72,1.719,1,1,0,0,0-.116,1.045l.781,1.646a7.987,7.987,0,0,0-.336.816l-1.718.611a1,1,0,0,0-.658.822A9.8,9.8,0,0,0,42,37a10.023,10.023,0,0,0,.08,1.213,1,1,0,0,0,.658.822l1.718.61a8.1,8.1,0,0,0,.337.817l-.781,1.645a1,1,0,0,0,.116,1.044,10.064,10.064,0,0,0,1.719,1.72,1,1,0,0,0,1.045.116l1.646-.781a7.987,7.987,0,0,0,.816.336l.611,1.718a1,1,0,0,0,.822.658A9.658,9.658,0,0,0,52,47a10.023,10.023,0,0,0,1.213-.08,1,1,0,0,0,.822-.658l.61-1.718a8.1,8.1,0,0,0,.817-.337l1.645.781a.994.994,0,0,0,1.044-.116,10.064,10.064,0,0,0,1.72-1.719,1,1,0,0,0,.116-1.045l-.781-1.646a7.987,7.987,0,0,0,.336-.816l1.718-.611a1,1,0,0,0,.658-.822A9.658,9.658,0,0,0,62,37a10.023,10.023,0,0,0-.08-1.213,1,1,0,0,0-.658-.823Zm-1.272,2.4-1.585.563a1,1,0,0,0-.629.675,5.95,5.95,0,0,1-.555,1.347,1,1,0,0,0-.033.921l.718,1.513q-.249.273-.521.521l-1.513-.718a1,1,0,0,0-.921.033,5.954,5.954,0,0,1-1.346.555,1,1,0,0,0-.676.629l-.563,1.585a6.837,6.837,0,0,1-.73,0L51.073,43.4a1,1,0,0,0-.675-.629,5.95,5.95,0,0,1-1.347-.555,1.008,1.008,0,0,0-.921-.033l-1.513.718q-.273-.249-.521-.521l.718-1.513a1,1,0,0,0-.033-.921,5.954,5.954,0,0,1-.555-1.346,1,1,0,0,0-.629-.676l-1.585-.563C44,37.244,44,37.123,44,37s0-.245.01-.365l1.585-.564a1,1,0,0,0,.628-.675,5.98,5.98,0,0,1,.556-1.347,1,1,0,0,0,.033-.921l-.718-1.513q.249-.273.521-.521l1.513.718a1,1,0,0,0,.921-.033,5.954,5.954,0,0,1,1.346-.555,1,1,0,0,0,.676-.629l.563-1.585a6.837,6.837,0,0,1,.73,0l.563,1.585a1,1,0,0,0,.675.629,5.95,5.95,0,0,1,1.347.555,1,1,0,0,0,.921.033l1.513-.718q.273.249.521.521l-.718,1.513a1,1,0,0,0,.033.921,5.954,5.954,0,0,1,.555,1.346,1,1,0,0,0,.629.676l1.585.563c.008.122.012.243.012.366s0,.244-.01.365Z" transform="translate(-42 -27.001)"/>
</svg>
