<svg xmlns="http://www.w3.org/2000/svg" width="40" height="39.985" viewBox="0 0 40 39.985">
  <path id="Path_6" data-name="Path 6" d="M2.08,43.608a1,1,0,0,0,.786.9l3.485.752a15.8,15.8,0,0,0,.468,1.752L4.181,49.4a1,1,0,0,0-.231,1.171,20,20,0,0,0,1.6,2.785,1,1,0,0,0,1.129.383l3.387-1.091a16.023,16.023,0,0,0,1.29,1.29l-1.091,3.387a1,1,0,0,0,.383,1.129,20,20,0,0,0,2.785,1.6,1,1,0,0,0,1.171-.231l2.39-2.638a16.1,16.1,0,0,0,1.753.468l.752,3.485a1,1,0,0,0,.9.786c.532.042,1.065.08,1.608.08s1.076-.038,1.608-.08a1,1,0,0,0,.9-.786l.752-3.485a15.816,15.816,0,0,0,1.753-.468l2.39,2.638a1,1,0,0,0,1.171.231,20.1,20.1,0,0,0,2.785-1.6,1,1,0,0,0,.383-1.129l-1.091-3.387a16.175,16.175,0,0,0,1.29-1.289l3.387,1.091a1,1,0,0,0,1.129-.383,20,20,0,0,0,1.6-2.785A1,1,0,0,0,39.82,49.4l-2.638-2.39a16.1,16.1,0,0,0,.468-1.753l3.485-.752a1,1,0,0,0,.786-.9C41.962,43.076,42,42.543,42,42s-.038-1.076-.08-1.608a1,1,0,0,0-.786-.9l-3.485-.752a15.816,15.816,0,0,0-.468-1.753l2.638-2.39a1,1,0,0,0,.231-1.171,20.1,20.1,0,0,0-1.6-2.785,1,1,0,0,0-1.129-.383l-3.387,1.091a16.022,16.022,0,0,0-1.29-1.29l1.091-3.387a1,1,0,0,0-.383-1.129,20,20,0,0,0-2.785-1.6,1,1,0,0,0-1.171.231l-2.39,2.638a16.1,16.1,0,0,0-1.753-.468L24.5,22.865a1,1,0,0,0-.9-.786,20.324,20.324,0,0,0-3.217,0,1,1,0,0,0-.9.786l-.752,3.485a15.8,15.8,0,0,0-1.752.468L14.6,24.18a1,1,0,0,0-1.171-.231,20,20,0,0,0-2.785,1.6,1,1,0,0,0-.383,1.129l1.091,3.387a16.023,16.023,0,0,0-1.29,1.29L6.675,30.26a1,1,0,0,0-1.129.383,20,20,0,0,0-1.6,2.785A1,1,0,0,0,4.181,34.6l2.638,2.39a16.1,16.1,0,0,0-.468,1.753l-3.485.752a1,1,0,0,0-.786.9C2.038,40.924,2,41.457,2,42s.038,1.076.08,1.608Zm1.941-2.317,3.4-.735a1,1,0,0,0,.776-.817,13.941,13.941,0,0,1,.719-2.691,1,1,0,0,0-.264-1.1L6.085,33.625c.224-.429.458-.84.7-1.229l3.3,1.062a1,1,0,0,0,1.081-.318,14.061,14.061,0,0,1,1.978-1.978,1,1,0,0,0,.318-1.081l-1.062-3.3q.583-.365,1.229-.7l2.328,2.57a1,1,0,0,0,1.1.264,13.873,13.873,0,0,1,2.69-.719,1,1,0,0,0,.817-.776l.734-3.4a13.17,13.17,0,0,1,1.419,0l.735,3.4a1,1,0,0,0,.817.776,13.941,13.941,0,0,1,2.691.719,1,1,0,0,0,1.095-.264l2.328-2.569c.429.224.84.458,1.229.7l-1.062,3.3a1,1,0,0,0,.318,1.081,14.06,14.06,0,0,1,1.978,1.978,1,1,0,0,0,1.081.318l3.3-1.062q.365.583.7,1.228l-2.57,2.328a1,1,0,0,0-.264,1.1,13.874,13.874,0,0,1,.719,2.69,1,1,0,0,0,.776.817l3.4.734c.013.235.022.472.022.71s-.008.475-.021.709l-3.4.735a1,1,0,0,0-.776.817,13.941,13.941,0,0,1-.719,2.691,1,1,0,0,0,.264,1.1l2.569,2.328c-.224.429-.458.84-.7,1.229l-3.3-1.062a1,1,0,0,0-1.081.318,14.114,14.114,0,0,1-1.978,1.978,1,1,0,0,0-.318,1.08l1.062,3.3q-.583.365-1.228.7l-2.328-2.57a1,1,0,0,0-1.1-.264,13.874,13.874,0,0,1-2.69.719,1,1,0,0,0-.817.776l-.734,3.4a13.169,13.169,0,0,1-1.419,0l-.735-3.4a1,1,0,0,0-.817-.776,13.941,13.941,0,0,1-2.691-.719,1,1,0,0,0-1.1.264l-2.328,2.569c-.429-.224-.84-.458-1.229-.7l1.062-3.3a1,1,0,0,0-.318-1.081,14.06,14.06,0,0,1-1.978-1.978,1,1,0,0,0-1.081-.318L6.786,51.6q-.365-.583-.7-1.229l2.57-2.328a1,1,0,0,0,.264-1.1,13.873,13.873,0,0,1-.719-2.69,1,1,0,0,0-.776-.817l-3.4-.732C4.009,42.475,4,42.238,4,42S4.008,41.525,4.021,41.291Z" transform="translate(-2 -22.015)"/>
</svg>
