<svg xmlns="http://www.w3.org/2000/svg" width="24" height="24" viewBox="0 0 24 24">
  <path id="Path_7" data-name="Path 7" d="M54.219,16.235a1,1,0,0,0,.693-.839A11.761,11.761,0,0,0,55,14a11.963,11.963,0,0,0-.087-1.4,1,1,0,0,0-.693-.839l-2.773-.871q-.125-.341-.276-.668l1.344-2.575a1,1,0,0,0-.1-1.083,12.107,12.107,0,0,0-1.979-1.979,1,1,0,0,0-1.083-.1L46.774,5.83q-.327-.15-.668-.275l-.871-2.773a1,1,0,0,0-.839-.693,11.062,11.062,0,0,0-2.793,0,1,1,0,0,0-.839.693l-.871,2.773q-.341.125-.668.276L36.65,4.487a1,1,0,0,0-1.083.1,12.108,12.108,0,0,0-1.979,1.979,1,1,0,0,0-.1,1.083l1.343,2.575q-.15.327-.275.668l-2.773.871a1,1,0,0,0-.693.839,11.244,11.244,0,0,0,0,2.792,1,1,0,0,0,.693.839l2.773.871q.125.34.276.668l-1.344,2.575a1,1,0,0,0,.1,1.083,12.107,12.107,0,0,0,1.979,1.979,1,1,0,0,0,1.083.1l2.575-1.343q.327.15.668.275l.871,2.773a1,1,0,0,0,.839.693A11.819,11.819,0,0,0,43,26a11.964,11.964,0,0,0,1.4-.087,1,1,0,0,0,.839-.693l.871-2.773q.341-.125.668-.276l2.575,1.344a1,1,0,0,0,1.083-.1,12.108,12.108,0,0,0,1.979-1.979,1,1,0,0,0,.1-1.083L51.17,17.776q.152-.327.276-.668Zm-3.86-.884a1,1,0,0,0-.658.667,7.044,7.044,0,0,1-.534,1.294,1,1,0,0,0-.006.936L50.43,20.68a10.205,10.205,0,0,1-.75.75l-2.432-1.269a1,1,0,0,0-.936.006,7.043,7.043,0,0,1-1.294.534,1,1,0,0,0-.667.658l-.824,2.624a8.425,8.425,0,0,1-1.054,0l-.824-2.624a1,1,0,0,0-.667-.658,6.949,6.949,0,0,1-1.293-.534,1,1,0,0,0-.937-.006L36.32,21.43a10.206,10.206,0,0,1-.75-.75l1.269-2.432a1,1,0,0,0-.006-.936,7.044,7.044,0,0,1-.534-1.294,1,1,0,0,0-.658-.667l-2.624-.824C33,14.344,33,14.169,33,14s.005-.344.017-.527l2.624-.824a1,1,0,0,0,.658-.667,6.949,6.949,0,0,1,.534-1.293,1,1,0,0,0,.006-.937L35.57,7.32a10.205,10.205,0,0,1,.75-.75l2.432,1.269a1,1,0,0,0,.936-.006A7.043,7.043,0,0,1,40.982,7.3a1,1,0,0,0,.667-.658l.824-2.624a8.424,8.424,0,0,1,1.054,0l.824,2.624a1,1,0,0,0,.667.658,6.949,6.949,0,0,1,1.293.534,1,1,0,0,0,.937.006L49.68,6.57a10.205,10.205,0,0,1,.75.75L49.161,9.752a1,1,0,0,0,.006.936,7.044,7.044,0,0,1,.534,1.294,1,1,0,0,0,.658.667l2.624.824c.012.183.017.358.017.527s-.005.344-.017.527Z" transform="translate(-31 -2.001)"/>
</svg>
