<?xml version="1.0" encoding="utf-8"?>
<!DOCTYPE svg PUBLIC "-//W3C//DTD SVG 20010904//EN" "http://www.w3.org/TR/2001/REC-SVG-20010904/DTD/svg10.dtd">
<svg version="1.0" xmlns="http://www.w3.org/2000/svg" width="128px" height="128px" viewBox="0 0 128 128" preserveAspectRatio="xMidYMid meet">
 <g fill="none" stroke="#ffffff" stroke-width="1">
  <path d="M112.5 22.5C108.5 16 108.5 12.5 112.5 6C113.5 4 115.5 1 118.5 2C121.5 2.5 122 6 121 8.5C120 13 116.5 19.5 112.5 22.5M93.5 14.5C107 11 112.5 33 98.5 36C84 39.5 79 17.5 93.5 14.5M73.5 34.5C76 33.5 81 34 79.5 38C77.5 44 70.5 50 66.5 54.5C57 66 48 78 38.5 89.5C35 93.5 32 97 28.5 101C27.5 102.5 26 104.5 24 105C21.5 105 19.5 102 18 100.5C13.5 96 8.5 90.5 4.5 85.5C3 83.5 1 81 2.5 78.5C6 73 15.5 69 21 65.5C32.5 58 44 50.5 56 43.5C61.5 40.5 67.5 35.5 73.5 34.5M24 106L26 109L25.5 109.5C20 110 13 115.5 12 121C11 124 14.5 129 18 127.5C22 125.5 26.5 120.5 29.5 117.5C37 110 44 103 50 94.5C52 92 57 81 61 81.5C64.5 82.5 64.5 89 65 92C65.5 95 67 98.5 65.5 101.5C63 108 54 110.5 50.5 116.5C48.5 119.5 49.5 125 54 125C56.5 125 59 122.5 61 121.5C66 117.5 77.5 111 78.5 104.5C79 99.5 76 94 76.5 88.5C76.5 85.5 80.5 82 79.5 79C79 77 76.5 77.5 75 76.5C72.5 75.5 71 73 70.5 70.5C70 67 72.5 65.5 73.5 62.5C75.5 58.5 75 54 77 50C78.5 47 83 41 86 40C93 37.5 97.5 45.5 96.5 51C95.5 57 90 59.5 86.5 63.5L86 63.5L85.5 63L87 57.5L88 58L88.5 58.5L89 59L89.5 59.5M87.5 55L87 57.5M26 109C31 107.5 35 101.5 38 97.5C46 88.5 53.5 79 61 69.5C64.5 65 68 59 74 57.5M69 60L72.5 63.5M74 63C76 66 74.5 70.5 78 72.5C83 75 91 73.5 96.5 73.5C98.5 73.5 101 73.5 103 72.5C110 67.5 98 64.5 95 64C92.5 64 90 63.5 87.5 63.5"/>
 </g>
</svg>